<?xml version="1.0" encoding="utf-8"?>
<!-- Generator: Adobe Illustrator 21.0.0, SVG Export Plug-In . SVG Version: 6.00 Build 0)  -->
<svg version="1.1" id="Capa_1" xmlns="http://www.w3.org/2000/svg" xmlns:xlink="http://www.w3.org/1999/xlink" x="0px" y="0px"
	 viewBox="0 0 720 720" style="enable-background:new 0 0 720 720;" xml:space="preserve">
<style type="text/css">
	.st0{fill:#FFFFFF;}
</style>
<g>
	<path d="M0,720C0,480,0,240,0,0c240,0,480,0,720,0c0,240,0,480,0,720C480,720,240,720,0,720z M305.1,550c-0.6-0.2-1.2-0.5-1.8-0.7
		c-10-4-20.1-7.5-30.6-9.5c-6.8-1.3-13.6-1.9-20.5-0.7c-7.1,1.3-12.7,4.7-15.9,11.4c-1.6,3.4-2.4,7.1-2.5,10.9
		c-0.5,12.3,2.9,23.7,7.4,34.9c0.4,1,1.1,1.3,2,1.4c5.5,0.6,11,1.4,16.5,1.8c16.5,1.2,33.1,0.8,49.6-0.5c16.6-1.3,33.1-3.5,49.4-6.6
		c1.6-0.3,3.1-0.8,4.5-1.5c1.7-0.8,2.7-2.4,2.4-4.3c-0.4-2.8-0.6-5.7-1.4-8.5c-2.3-8.1-4.9-16.2-7.3-24.3
		c-5.6-19.7-10.7-39.5-13.9-59.7c-0.4-2.6-0.7-5.3-1.1-8c0.6-0.1,0.8-0.2,1-0.2c0.6,0,1.1,0,1.7,0.1c6.2,0.6,12.3,0.4,18.4-0.6
		c6.2-1.1,12.1-3.1,17.2-7c7.8-5.8,11.7-14,13.4-23.3c1.4-8,1.1-15.9-0.2-23.9c-0.4-2.4-0.9-4.8-1.4-7.5c1,0.2,1.7,0.3,2.5,0.5
		c14.4,3.6,24.2,12.4,29.5,26.3c3.2,8.4,4.3,17.2,4.7,26.1c0.3,8.7,0,17.4-0.7,26.1c-0.3,3.6-0.5,7.2-0.5,10.8c0,5.1,1.6,7,6.6,8.3
		c0.2,0.1,0.5,0.1,0.7,0.1c5.2,0.6,10.5,1.5,15.7,1.8c14.7,0.8,29.3-0.2,43.7-2.9c12.4-2.2,24.5-5.5,36.2-10.1
		c1.7-0.7,2.6-1.7,3.1-3.5c1.6-6.1,2.5-12.4,2.7-18.7c0.3-7.3-0.1-14.6-2.7-21.5c-3.5-9.1-10.4-14-20.2-14.3
		c-5.3-0.2-10.3,0.8-15.4,2.2c-10.9,3.2-20.9,8.3-30.5,14.3c-0.7,0.4-1.5,0.9-2.6,1.6c0.4-1.1,0.5-1.6,0.7-2.2
		c3.6-10,6.4-20.3,7.7-30.9c1.2-9.4,1.1-18.8-1.2-28.1c-2.2-9-6.2-17.1-13.4-23.3c-0.2-0.1-0.2-0.4-0.3-0.7c0.6-0.2,1.1-0.3,1.7-0.5
		c15.7-4.4,31.4-8.7,47.1-13.1c3.2-0.9,6-2.7,8.1-5.3c2-2.6,3.2-5.5,3.9-8.7c1-4.5,0.9-9.1,0.4-13.6c-0.8-8.9-3.7-17-9-24.2
		c-2.9-3.9-6.4-7.2-10.9-9.2c-3.2-1.5-6.5-2.4-10-1.4c-4.2,1.1-8.5,2.2-12.6,3.7c-12.6,4.7-24.6,10.7-36.6,16.8
		c-0.7,0.4-1.5,0.7-2.4,1.1c0-0.4,0-0.6,0-0.7c5.5-10,9-20.8,11.4-31.9c0.2-1,0.8-1.6,1.7-2.1c2.8-1.5,5.8-2.9,8.3-4.7
		c11.4-8.4,17.2-19.7,16.7-33.8c-0.4-12-5.2-22.5-13.2-31.4c-2.6-2.9-5.6-5.5-9.1-7.3c-1.3-0.6-2.1-1.5-2.7-2.9
		c-3.9-8.7-8.5-17-14.2-24.7c-4.5-6.1-9.5-11.6-16-15.8c-1.3-0.9-2-1.9-2.4-3.3c-2.7-9.3-5.3-18.6-8.2-27.8
		c-1.8-5.8-4.1-11.5-7.2-16.7c-1.2-2.1-2.7-4.2-4.4-5.9c-2.2-2.3-4.4-2.6-7.2-0.9c-1.6,0.9-3.1,2.1-4.3,3.4
		c-2.2,2.7-4.3,5.5-6.2,8.5c-3.7,6-6.5,12.5-9.2,19c-0.3,0.8-0.7,1.6-1.1,2.5c-1.1,0-2.2,0-3.2,0c-9.8-0.1-19.5,0.3-29.2,1.4
		c-10.8,1.3-21.5,3.3-31.9,6.7c-5.6,1.8-11.1,4-16.4,6.9c-0.6-0.7-1.1-1.3-1.6-1.9c-3.7-4.6-7.5-9.2-12-13.1c-2.4-2.1-5-4-7.8-5.5
		c-5.1-2.7-8.6-1.4-11.3,3.7c-0.5,0.9-0.9,1.9-1.3,2.8c-0.7,2.3-1.4,4.6-1.9,6.9c-2,10.3-2.3,20.6-2.2,31c0,1.5-0.2,2.7-1.3,3.9
		c-16.7,19-25.2,41.1-24.9,66.5c0,0.8-0.3,1.7-0.7,2.4c-1,2.3-2.4,4.6-3.1,7c-2.3,7.3-3.1,14.7-2,22.3c2.1,13.6,8.9,24.2,21,31
		c6.7,3.8,14,4.8,21.6,3.3c2.5-0.5,4.9-1.3,7.4-2c0.2,0.3,0.4,0.6,0.6,1c2.8,5.5,6.4,10.5,10.6,15.1c7.8,8.7,16.9,15.8,26.8,22
		c0.6,0.4,1.2,0.8,1.9,1.3c-3,0-5.7,0-8.4,0c-17.5-0.4-35-0.8-52.5-1c-9.1-0.1-18.2,0.3-27.3,0.5c-1.8,0.1-3.6,0.5-5.4,0.9
		c-3,0.8-4.7,3.2-6.3,5.6c-6.3,10-8.8,21-7.6,32.8c0.4,4.6,1.5,9.1,3.7,13.3c4.3,8.5,11.4,12.4,20.7,11.8c6.9-0.4,13.9-1.2,20.7-2.4
		c14.8-2.6,29.5-5.5,44.3-8.3c0.6-0.1,1.3-0.1,2.4-0.2c-6.9,9.5-11.1,19.9-15.5,30.3c-1.5-0.2-2.9-0.4-4.3-0.5
		c-7.7-0.6-15.3-1.4-23-1.7c-8.1-0.4-16.3-0.5-24.5-0.4c-7.8,0.1-15.7,0.8-23.3,2.6c-4.6,1.1-9.1,2.5-13,5.3
		c-5.8,4-7.5,9.1-5.7,16.2c0.8,3,2.8,5.1,5.8,5.8c1.7,0.4,3.5,0.5,5.2,0.4c3.4-0.2,6.6-1.3,9.7-2.6c1.5-0.6,3-1.1,4.5-1.5
		c8.6-2.1,17.4-2.8,26.2-2.7c11.8,0.1,23.6,1.3,35.4,2.8c0.8,0.1,1.5,0.3,2.4,0.5c-0.8,14.3,2.3,27.6,8,40.5
		C288.2,528.1,295.9,539.5,305.1,550z"/>
	<path class="st0" d="M305.1,550c-9.2-10.5-16.9-21.9-22.6-34.6c-5.7-12.8-8.7-26.2-8-40.5c-0.9-0.2-1.6-0.4-2.4-0.5
		c-11.7-1.6-23.5-2.7-35.4-2.8c-8.8-0.1-17.6,0.6-26.2,2.7c-1.5,0.4-3.1,0.9-4.5,1.5c-3.1,1.3-6.3,2.4-9.7,2.6
		c-1.7,0.1-3.5,0-5.2-0.4c-3.1-0.7-5-2.8-5.8-5.8c-1.9-7-0.1-12.2,5.7-16.2c3.9-2.7,8.4-4.2,13-5.3c7.7-1.8,15.5-2.5,23.3-2.6
		c8.2-0.1,16.3,0,24.5,0.4c7.7,0.3,15.3,1.1,23,1.7c1.4,0.1,2.8,0.3,4.3,0.5c4.3-10.4,8.6-20.8,15.5-30.3c-1.1,0.1-1.8,0.1-2.4,0.2
		c-14.8,2.8-29.5,5.7-44.3,8.3c-6.8,1.2-13.8,2-20.7,2.4c-9.3,0.6-16.4-3.4-20.7-11.8c-2.1-4.2-3.2-8.7-3.7-13.3
		c-1.1-11.8,1.3-22.7,7.6-32.8c1.6-2.5,3.3-4.8,6.3-5.6c1.8-0.5,3.6-0.9,5.4-0.9c9.1-0.3,18.2-0.6,27.3-0.5c17.5,0.2,35,0.7,52.5,1
		c2.7,0.1,5.4,0,8.4,0c-0.7-0.5-1.3-0.9-1.9-1.3c-9.9-6.2-18.9-13.4-26.8-22c-4.2-4.6-7.8-9.5-10.6-15.1c-0.2-0.3-0.4-0.7-0.6-1
		c-2.5,0.7-5,1.5-7.4,2c-7.6,1.5-14.9,0.5-21.6-3.3c-12.1-6.8-18.9-17.4-21-31c-1.2-7.5-0.4-15,2-22.3c0.8-2.4,2.1-4.6,3.1-7
		c0.3-0.8,0.7-1.6,0.7-2.4c-0.3-25.4,8.2-47.5,24.9-66.5c1.1-1.2,1.3-2.4,1.3-3.9c-0.2-10.4,0.1-20.8,2.2-31
		c0.5-2.3,1.2-4.6,1.9-6.9c0.3-1,0.8-1.9,1.3-2.8c2.7-5.1,6.2-6.4,11.3-3.7c2.8,1.5,5.4,3.4,7.8,5.5c4.5,3.9,8.3,8.4,12,13.1
		c0.5,0.6,1,1.2,1.6,1.9c5.3-2.9,10.8-5.1,16.4-6.9c10.4-3.3,21-5.4,31.9-6.7c9.7-1.1,19.4-1.6,29.2-1.4c1,0,2.1,0,3.2,0
		c0.4-0.9,0.7-1.7,1.1-2.5c2.7-6.5,5.5-13,9.2-19c1.8-3,3.9-5.8,6.2-8.5c1.1-1.4,2.7-2.5,4.3-3.4c2.7-1.6,5-1.4,7.2,0.9
		c1.7,1.8,3.2,3.8,4.4,5.9c3.1,5.3,5.3,10.9,7.2,16.7c2.9,9.2,5.5,18.5,8.2,27.8c0.4,1.4,1,2.5,2.4,3.3c6.4,4.1,11.4,9.7,16,15.8
		c5.7,7.7,10.3,16,14.2,24.7c0.6,1.3,1.4,2.2,2.7,2.9c3.5,1.8,6.5,4.4,9.1,7.3c8.1,8.9,12.8,19.4,13.2,31.4
		c0.5,14.1-5.4,25.4-16.7,33.8c-2.6,1.9-5.5,3.3-8.3,4.7c-1,0.5-1.5,1.1-1.7,2.1c-2.4,11.2-5.9,21.9-11.4,31.9c-0.1,0.1,0,0.3,0,0.7
		c0.9-0.4,1.6-0.7,2.4-1.1c11.9-6.2,24-12.2,36.6-16.8c4.1-1.5,8.4-2.6,12.6-3.7c3.5-0.9,6.8,0,10,1.4c4.5,2.1,7.9,5.3,10.9,9.2
		c5.4,7.2,8.2,15.3,9,24.2c0.4,4.5,0.6,9.1-0.4,13.6c-0.7,3.2-1.9,6.1-3.9,8.7c-2.1,2.7-4.8,4.4-8.1,5.3
		c-15.7,4.4-31.4,8.8-47.1,13.1c-0.5,0.1-1.1,0.3-1.7,0.5c0.1,0.2,0.1,0.5,0.3,0.7c7.2,6.2,11.2,14.3,13.4,23.3
		c2.3,9.3,2.3,18.7,1.2,28.1c-1.3,10.6-4.1,20.8-7.7,30.9c-0.2,0.6-0.4,1.1-0.7,2.2c1.2-0.7,1.9-1.2,2.6-1.6
		c9.6-6,19.6-11.1,30.5-14.3c5-1.5,10.1-2.4,15.4-2.2c9.8,0.3,16.7,5.1,20.2,14.3c2.6,6.9,3,14.2,2.7,21.5
		c-0.3,6.3-1.2,12.6-2.7,18.7c-0.5,1.8-1.3,2.8-3.1,3.5c-11.7,4.6-23.8,7.9-36.2,10.1c-14.5,2.6-29,3.7-43.7,2.9
		c-5.3-0.3-10.5-1.2-15.7-1.8c-0.2,0-0.5-0.1-0.7-0.1c-4.9-1.3-6.6-3.2-6.6-8.3c0-3.6,0.3-7.2,0.5-10.8c0.7-8.7,1-17.4,0.7-26.1
		c-0.3-8.9-1.5-17.7-4.7-26.1c-5.2-13.9-15-22.7-29.5-26.3c-0.7-0.2-1.5-0.3-2.5-0.5c0.5,2.7,1,5.1,1.4,7.5
		c1.3,7.9,1.7,15.9,0.2,23.9c-1.7,9.4-5.6,17.5-13.4,23.3c-5.1,3.8-11,5.9-17.2,7c-6.1,1-12.2,1.2-18.4,0.6
		c-0.6-0.1-1.1-0.1-1.7-0.1c-0.2,0-0.5,0.1-1,0.2c0.3,2.7,0.6,5.3,1.1,8c3.3,20.2,8.3,40.1,13.9,59.7c2.3,8.1,5,16.2,7.3,24.3
		c0.8,2.7,1,5.6,1.4,8.5c0.3,2-0.7,3.5-2.4,4.3c-1.4,0.7-3,1.2-4.5,1.5c-16.3,3.1-32.8,5.3-49.4,6.6c-16.5,1.3-33.1,1.7-49.6,0.5
		c-5.5-0.4-11-1.2-16.5-1.8c-1-0.1-1.6-0.4-2-1.4c-4.4-11.2-7.9-22.7-7.4-34.9c0.1-3.8,0.9-7.5,2.5-10.9c3.2-6.7,8.8-10.1,15.9-11.4
		c6.9-1.2,13.7-0.6,20.5,0.7c10.6,2,20.7,5.6,30.6,9.5C303.9,549.5,304.5,549.7,305.1,550z M320.5,354.3c4.2-2.8,8.4-5.6,12.6-8.4
		c-0.6-7.9-1.2-15.9-1.8-23.9c0.2-0.1,0.3-0.2,0.5-0.2c5,6.1,10,12.1,15,18.2c14.3-5.5,28.9-8.4,44-9.6c1.8-8.4,3.5-16.8,5.2-25.1
		c0.2,0,0.3,0,0.5,0c3.5,8.2,7.1,16.4,10.6,24.5c4.7,0.2,9.2,0.4,13.8,0.6c6.1-20.3,8.3-40.9,7.8-61.9c-10.8,0-21.2,0.6-31.5,1.8
		c-0.8,7.5-0.9,14.7-2.2,21.8c-3.8-6.7-7.5-13.5-11.3-20.2c-20.7,3.1-40.8,7.9-60,15.8c1.3,8.2,2.5,16,3.7,23.9
		c-0.2,0.1-0.3,0.1-0.5,0.2c-5.5-6-10.9-12-16.4-18.1c-7,3.6-13.6,7.4-19.8,11.9C294.4,318.1,312.8,348.2,320.5,354.3z M365.8,168.1
		c-0.8-0.1-1.4-0.1-1.9-0.1c-13.2,0-26.3,1.3-39.3,4c-8.2,1.7-16.3,4-24,7.4c-0.8,0.3-1.5,0.8-2.3,1.2c3.8,5.6,7.3,11,10.9,16.4
		c16-9,33.1-11.9,50.9-11.2C362.1,179.7,363.9,174,365.8,168.1z M365.6,423.6c-0.8,0.2-1.3,0.3-1.9,0.5c-7.2,2.4-12.6,7.2-16.3,13.7
		c-3.8,6.7-5.7,14-6.2,21.7c0,0.6,0.1,1.2,0.1,1.9c5.7,1,11.2,1.6,16.8,0.5c7.2-1.4,10.6-5.1,11.6-12.4c0.7-4.9,0.1-9.7-0.8-14.5
		C368.2,431.2,367.2,427.4,365.6,423.6z M252.3,219.5c-6.3,9.5-10,19.9-11.5,31.3c2.3-0.6,4.3-1.2,6.4-1.5c2-0.3,4.1-0.2,6.2-0.3
		C253.1,239.1,252.7,229.3,252.3,219.5z M425.7,200.3c-0.2,0.1-0.4,0.2-0.5,0.3c1.3,6.4,2.6,12.7,3.9,19.2c2.4-1,4.6-1.9,7-3
		C433.1,210.9,430.1,205.2,425.7,200.3z"/>
	<path d="M320.5,354.3c-7.6-6.2-26.1-36.3-29.9-48.8c6.2-4.5,12.7-8.4,19.8-11.9c5.5,6,11,12.1,16.4,18.1c0.2-0.1,0.3-0.1,0.5-0.2
		c-1.2-7.9-2.4-15.8-3.7-23.9c19.3-7.9,39.3-12.7,60-15.8c3.8,6.8,7.5,13.5,11.3,20.2c1.3-7.2,1.5-14.4,2.2-21.8
		c10.3-1.2,20.7-1.7,31.5-1.8c0.4,21.1-1.7,41.6-7.8,61.9c-4.6-0.2-9.1-0.4-13.8-0.6c-3.5-8.2-7.1-16.4-10.6-24.5
		c-0.2,0-0.3,0-0.5,0c-1.7,8.3-3.5,16.6-5.2,25.1c-15.1,1.2-29.7,4.1-44,9.6c-5-6.1-10-12.1-15-18.2c-0.2,0.1-0.3,0.2-0.5,0.2
		c0.6,8,1.2,16,1.8,23.9C328.8,348.7,324.7,351.5,320.5,354.3z"/>
	<path d="M365.8,168.1c-1.9,6-3.8,11.7-5.7,17.6c-17.8-0.7-34.9,2.3-50.9,11.2c-3.6-5.4-7.2-10.7-10.9-16.4c0.8-0.4,1.6-0.8,2.3-1.2
		c7.7-3.4,15.8-5.7,24-7.4c12.9-2.7,26.1-4,39.3-4C364.5,167.9,365,168,365.8,168.1z"/>
	<path d="M365.6,423.6c1.6,3.8,2.5,7.6,3.3,11.4c0.9,4.8,1.6,9.6,0.8,14.5c-1.1,7.3-4.5,11-11.6,12.4c-5.6,1.1-11.1,0.4-16.8-0.5
		c0-0.7-0.2-1.3-0.1-1.9c0.5-7.7,2.4-15,6.2-21.7c3.7-6.6,9.1-11.3,16.3-13.7C364.3,423.9,364.8,423.8,365.6,423.6z"/>
	<path d="M252.3,219.5c0.4,9.8,0.7,19.6,1.1,29.5c-2.2,0.1-4.2,0-6.2,0.3c-2,0.3-4,0.9-6.4,1.5C242.3,239.4,246.1,229,252.3,219.5z"
		/>
	<path d="M425.7,200.3c4.3,4.9,7.3,10.6,10.3,16.5c-2.4,1-4.6,1.9-7,3c-1.3-6.4-2.6-12.8-3.9-19.2
		C425.4,200.5,425.6,200.4,425.7,200.3z"/>
</g>
</svg>
